<svg viewBox="0 0 180 180" xmlns="http://www.w3.org/2000/svg">
  <defs>
    <linearGradient id="gradient" x1="0%" y1="0%" x2="100%" y2="0%">
      <stop offset="0%" stop-color="#8A3FFC" stop-opacity="1" />
      <stop offset="100%" stop-color="#8A3FFC" stop-opacity="1" />
    </linearGradient>
  </defs><path d="M90,166.40160648501478C104.80422677431872,165.3189940620861,119.78617884821585,163.8029970688067,132.34366412543673,155.88802748225012C144.96374870407118,147.93360162273046,154.20550064092566,135.72085452296022,160.2877248819704,122.09932840405087C166.335351545784,108.55528574895808,168.02932134032747,93.74611320286367,166.68694241096875,78.97408224846016C165.28967606076353,63.59804994837152,162.6654725795338,47.463466105775886,152.45308679000618,35.884092243919646C142.2730878371859,24.341440387887133,126.1362095464454,21.501876771743024,111.58319829963771,16.49437697650768C96.30973575132873,11.238979362493694,81.00905831747906,2.1173585036963636,65.3053357581616,5.8976971229161865C49.41430387543302,9.723126494749366,37.55685160759182,23.06662201690606,28.30577787830647,36.54165222214518C19.697125851459106,49.08093679415586,16.269036537254998,64.05806324743831,14.97210994397174,79.21261796570182C13.732934764017518,93.69234886750215,16.32348179475977,107.74748862320641,21.035467497987526,121.49504669174145C26.181118206342738,136.50785368414256,30.180802430681645,153.72665731121486,43.48002013015771,162.38650162768076C56.79255735153602,171.0550190096344,74.1562499902642,167.5602377899656,90,166.40160648501478" fill="url(#gradient)" />
</svg>